<svg width="57" height="57" viewBox="0 0 57 57" fill="none" xmlns="http://www.w3.org/2000/svg">
<path d="M48.4301 38.9268L43.8462 34.5575L40.9563 31.777L40.6574 31.4791C39.7605 30.6847 39.2623 29.493 39.2623 28.3014C39.2623 27.1098 39.7605 26.0174 40.5577 25.1237L43.3479 22.3432L47.6329 18.0732C49.1277 16.5836 50.0245 14.5976 50.1242 12.5122C50.1242 11.0227 49.5263 9.63241 48.5297 8.54007C46.1381 6.1568 41.8532 6.55401 38.8637 9.4338L34.5787 13.6045L31.8881 16.385L31.7885 16.4843C29.8951 18.2718 27.0053 18.2718 25.2116 16.4843L22.3217 13.8031L17.4388 9.13589C14.549 6.2561 10.1644 5.95819 7.77275 8.24216C6.6766 9.3345 6.17834 10.7247 6.17834 12.2143C6.278 14.2997 7.17485 16.2857 8.6696 17.7753L13.3532 22.3432L16.243 25.1237C18.0367 26.8118 18.0367 29.5923 16.3427 31.3798L16.243 31.4791L16.0437 31.6777L13.1539 34.4582L9.06821 38.4303C7.57345 39.9199 6.6766 41.9059 6.6766 43.9913C6.6766 45.4808 7.2745 46.8711 8.271 47.9634C10.7623 50.3467 15.0472 49.8502 17.9371 47.0697L22.1224 42.9982L24.9126 40.2178L25.1119 40.0192C26.9056 38.2317 29.7955 38.2317 31.6888 39.9198L31.7885 40.0192L34.479 42.7003L39.5612 47.5662C42.4511 50.3467 46.8357 50.7439 49.2273 48.3606C50.3235 47.2683 50.8217 45.878 50.8217 44.3885C50.9214 42.3031 50.0245 40.3171 48.4301 38.9268ZM47.4336 46.3745C46.1381 47.6655 43.5472 47.2683 41.7535 45.4808L33.8811 38.0331C30.8916 35.2526 26.2081 35.2526 23.3182 38.1324L16.1434 45.1829C14.3497 46.9704 11.7588 47.3676 10.3637 46.0766C9.86541 45.5801 9.56646 44.7857 9.56646 44.0906C9.66611 42.7003 10.1644 41.5087 11.1609 40.5157L18.3357 33.4652C21.2255 30.6847 21.2256 26.0174 18.4353 23.2369L18.3357 23.1376L10.6626 15.7892C9.66611 14.8955 9.06821 13.6045 8.96856 12.2143C8.96856 11.5192 9.16786 10.824 9.66611 10.3275C10.9616 9.03659 13.5525 9.4338 15.3462 11.2213L23.0193 18.5697C26.0088 21.3502 30.6923 21.3502 33.5822 18.4704L40.757 11.4199C42.5507 9.63241 45.1416 9.2352 46.5367 10.5261C47.035 11.0227 47.3339 11.8171 47.3339 12.5122C47.2343 13.9024 46.736 15.0941 45.7395 16.0871L38.5647 23.1376C35.6749 25.9181 35.6749 30.4861 38.4651 33.3658C38.5647 33.4651 38.5647 33.4651 38.6644 33.5645L46.4371 41.1115C47.4336 42.0052 48.0315 43.2962 48.1311 44.6864C48.1311 45.1829 47.9318 45.878 47.4336 46.3745Z" fill="#606A70"/>
<path d="M54.7081 24.0313C53.2133 22.939 51.5192 22.3432 49.6259 22.3432H43.3479L40.6573 25.0244H49.5262C50.722 25.0244 52.0175 25.4216 53.014 26.1167C53.7115 26.6132 54.2098 27.5069 54.2098 28.4007C54.2098 30.1881 52.0175 31.777 49.5262 31.777H41.056L43.8462 34.5575H49.6259C53.7115 34.5575 57 31.8763 57 28.5C57 26.7125 56.1032 25.0244 54.7081 24.0313Z" fill="#E54800"/>
<path d="M31.8881 40.1185H31.7885V49.6516C31.7885 52.1341 30.2937 54.2195 28.4003 54.2195C26.507 54.2195 25.1119 52.1341 25.1119 49.6516V40.3171L22.4213 42.9982V49.7509C22.4213 53.723 25.1119 57 28.5 57C31.8881 57 34.5787 53.723 34.5787 49.7509V42.601L31.8881 40.1185Z" fill="#E54800"/>
<path d="M16.243 31.777H7.47378C4.98252 31.777 2.79021 30.1881 2.79021 28.4007C2.79021 27.5069 3.28846 26.7125 3.98601 26.1167C4.98252 25.4216 6.17832 25.0244 7.37413 25.0244H16.243L13.4528 22.3432H7.37413C5.58042 22.3432 3.78671 22.939 2.29196 24.0313C0.896853 25.0244 0 26.7125 0 28.4007C0 31.777 3.28846 34.4582 7.37413 34.4582H13.4528L16.243 31.777Z" fill="#E54800"/>
<path d="M28.4004 0C26.7063 0 25.0123 0.893728 24.0158 2.28397C22.9196 3.67421 22.3217 5.46167 22.3217 7.34843V13.9024L25.0123 16.4843V7.34843C25.0123 6.15679 25.4109 4.96515 26.1084 3.97212C26.6067 3.277 27.5035 2.78049 28.4004 2.78049C30.1941 2.78049 31.7885 4.86585 31.7885 7.34843V16.2857L34.4791 13.6045V7.24913C34.4791 3.277 31.7885 0 28.4004 0Z" fill="#E54800"/>
</svg>
