<svg width="65" height="65" viewBox="0 0 65 65" fill="none" xmlns="http://www.w3.org/2000/svg">
<g filter="url(#filter0_d)">
<path d="M52.4301 38.9268L47.8462 34.5575L44.9563 31.777L44.6574 31.4791C43.7605 30.6847 43.2623 29.493 43.2623 28.3014C43.2623 27.1098 43.7605 26.0174 44.5577 25.1237L47.3479 22.3432L51.6329 18.0732C53.1276 16.5836 54.0245 14.5976 54.1241 12.5122C54.1241 11.0227 53.5262 9.63241 52.5297 8.54007C50.1381 6.1568 45.8532 6.55401 42.8636 9.4338L38.5787 13.6045L35.8881 16.385L35.7885 16.4843C33.8951 18.2718 31.0053 18.2718 29.2115 16.4843L26.3217 13.8031L21.4388 9.13589C18.549 6.2561 14.1643 5.95819 11.7727 8.24216C10.6766 9.3345 10.1783 10.7247 10.1783 12.2143C10.278 14.2997 11.1748 16.2857 12.6696 17.7753L17.3532 22.3432L20.243 25.1237C22.0367 26.8118 22.0367 29.5923 20.3427 31.3798L20.243 31.4791L20.0437 31.6777L17.1539 34.4582L13.0682 38.4303C11.5734 39.9198 10.6766 41.9059 10.6766 43.9913C10.6766 45.4808 11.2745 46.8711 12.271 47.9634C14.7622 50.3467 19.0472 49.8502 21.9371 47.0697L26.1224 42.9982L28.9126 40.2178L29.1119 40.0191C30.9056 38.2317 33.7955 38.2317 35.6888 39.9198L35.7885 40.0191L38.479 42.7003L43.5612 47.5662C46.4511 50.3467 50.8357 50.7439 53.2273 48.3606C54.3234 47.2683 54.8217 45.878 54.8217 44.3885C54.9213 42.3031 54.0245 40.3171 52.4301 38.9268ZM51.4336 46.3745C50.1381 47.6655 47.5472 47.2683 45.7535 45.4808L37.8811 38.0331C34.8916 35.2526 30.2081 35.2526 27.3182 38.1324L20.1434 45.1829C18.3497 46.9704 15.7587 47.3676 14.3636 46.0766C13.8654 45.5801 13.5664 44.7857 13.5664 44.0906C13.6661 42.7003 14.1643 41.5087 15.1608 40.5157L22.3357 33.4652C25.2255 30.6847 25.2255 26.0174 22.4353 23.2369L22.3357 23.1376L14.6626 15.7892C13.6661 14.8955 13.0682 13.6045 12.9685 12.2143C12.9685 11.5192 13.1678 10.824 13.6661 10.3275C14.9615 9.03659 17.5525 9.4338 19.3462 11.2213L27.0192 18.5697C30.0088 21.3502 34.6923 21.3502 37.5822 18.4704L44.757 11.4199C46.5507 9.63241 49.1416 9.2352 50.5367 10.5261C51.035 11.0227 51.3339 11.8171 51.3339 12.5122C51.2343 13.9024 50.736 15.0941 49.7395 16.0871L42.5647 23.1376C39.6748 25.9181 39.6748 30.4861 42.465 33.3658C42.5647 33.4651 42.5647 33.4651 42.6643 33.5645L50.4371 41.1115C51.4336 42.0052 52.0315 43.2962 52.1311 44.6864C52.1311 45.1829 51.9318 45.878 51.4336 46.3745Z" fill="#606A70"/>
<path d="M58.708 24.0313C57.2133 22.939 55.5192 22.3432 53.6259 22.3432H47.3479L44.6573 25.0244H53.5262C54.722 25.0244 56.0175 25.4216 57.014 26.1167C57.7115 26.6132 58.2098 27.5069 58.2098 28.4007C58.2098 30.1881 56.0175 31.777 53.5262 31.777H45.0559L47.8461 34.5575H53.6259C57.7115 34.5575 61 31.8763 61 28.5C61 26.7125 60.1031 25.0244 58.708 24.0313Z" fill="#E54800"/>
<path d="M35.8881 40.1185H35.7885V49.6516C35.7885 52.1341 34.2937 54.2195 32.4003 54.2195C30.507 54.2195 29.1119 52.1341 29.1119 49.6516V40.3171L26.4213 42.9982V49.7509C26.4213 53.723 29.1119 57 32.5 57C35.8881 57 38.5787 53.723 38.5787 49.7509V42.601L35.8881 40.1185Z" fill="#E54800"/>
<path d="M20.243 31.777H11.4738C8.98252 31.777 6.79021 30.1881 6.79021 28.4007C6.79021 27.5069 7.28846 26.7125 7.98601 26.1167C8.98252 25.4216 10.1783 25.0244 11.3741 25.0244H20.243L17.4528 22.3432H11.3741C9.58042 22.3432 7.78671 22.939 6.29196 24.0313C4.89685 25.0244 4 26.7125 4 28.4007C4 31.777 7.28846 34.4582 11.3741 34.4582H17.4528L20.243 31.777Z" fill="#E54800"/>
<path d="M32.4004 0C30.7063 0 29.0123 0.893728 28.0158 2.28397C26.9196 3.67421 26.3217 5.46167 26.3217 7.34843V13.9024L29.0123 16.4843V7.34843C29.0123 6.15679 29.4109 4.96515 30.1084 3.97212C30.6067 3.277 31.5035 2.78049 32.4004 2.78049C34.1941 2.78049 35.7885 4.86585 35.7885 7.34843V16.2857L38.479 13.6045V7.24913C38.479 3.277 35.7885 0 32.4004 0Z" fill="#E54800"/>
</g>
<defs>
<filter id="filter0_d" x="0" y="0" width="65" height="65" filterUnits="userSpaceOnUse" color-interpolation-filters="sRGB">
<feFlood flood-opacity="0" result="BackgroundImageFix"/>
<feColorMatrix in="SourceAlpha" type="matrix" values="0 0 0 0 0 0 0 0 0 0 0 0 0 0 0 0 0 0 127 0"/>
<feOffset dy="4"/>
<feGaussianBlur stdDeviation="2"/>
<feColorMatrix type="matrix" values="0 0 0 0 0 0 0 0 0 0 0 0 0 0 0 0 0 0 0.25 0"/>
<feBlend mode="normal" in2="BackgroundImageFix" result="effect1_dropShadow"/>
<feBlend mode="normal" in="SourceGraphic" in2="effect1_dropShadow" result="shape"/>
</filter>
</defs>
</svg>
