<svg width="141" height="28" viewBox="0 0 141 28" fill="none" xmlns="http://www.w3.org/2000/svg">
<path d="M7.128 22C6.968 22 6.832 21.952 6.72 21.856C6.624 21.744 6.576 21.608 6.576 21.448V15.784L0.792 5.992C0.792 5.96 0.784 5.912 0.768 5.848C0.736 5.784 0.72 5.728 0.72 5.68C0.72 5.552 0.768 5.44 0.864 5.344C0.96 5.248 1.072 5.2 1.2 5.2H2.448C2.72 5.2 2.928 5.336 3.072 5.608L7.752 13.384L12.432 5.608C12.608 5.336 12.824 5.2 13.08 5.2H14.304C14.448 5.2 14.568 5.248 14.664 5.344C14.76 5.44 14.808 5.552 14.808 5.68C14.808 5.76 14.776 5.864 14.712 5.992L8.952 15.784V21.448C8.952 21.608 8.896 21.744 8.784 21.856C8.672 21.952 8.536 22 8.376 22H7.128ZM23.9631 22.24C21.8991 22.24 20.2991 21.688 19.1631 20.584C18.0431 19.464 17.4831 17.776 17.4831 15.52V5.776C17.4831 5.6 17.5311 5.464 17.6271 5.368C17.7391 5.256 17.8751 5.2 18.0351 5.2H19.2591C19.4351 5.2 19.5711 5.256 19.6671 5.368C19.7791 5.464 19.8351 5.6 19.8351 5.776V15.568C19.8351 17.104 20.1951 18.256 20.9151 19.024C21.6351 19.792 22.6511 20.176 23.9631 20.176C25.2751 20.176 26.2911 19.792 27.0111 19.024C27.7311 18.256 28.0911 17.104 28.0911 15.568V5.776C28.0911 5.6 28.1391 5.464 28.2351 5.368C28.3471 5.256 28.4831 5.2 28.6431 5.2H29.8911C30.0511 5.2 30.1791 5.256 30.2751 5.368C30.3871 5.48 30.4431 5.616 30.4431 5.776V15.52C30.4431 17.776 29.8751 19.464 28.7391 20.584C27.6191 21.688 26.0271 22.24 23.9631 22.24ZM40.5032 22.24C38.3592 22.24 36.7272 21.664 35.6072 20.512C34.5032 19.36 33.9112 17.768 33.8312 15.736C33.8152 15.304 33.8072 14.6 33.8072 13.624C33.8072 12.632 33.8152 11.912 33.8312 11.464C33.9112 9.448 34.5112 7.864 35.6312 6.712C36.7512 5.544 38.3752 4.96 40.5032 4.96C41.9272 4.96 43.1352 5.216 44.1272 5.728C45.1192 6.224 45.8712 6.88 46.3832 7.696C46.8952 8.512 47.1752 9.384 47.2232 10.312V10.36C47.2232 10.488 47.1672 10.6 47.0552 10.696C46.9592 10.776 46.8472 10.816 46.7192 10.816H45.3992C45.0792 10.816 44.8792 10.632 44.7992 10.264C44.5272 9.064 44.0392 8.224 43.3352 7.744C42.6312 7.248 41.6872 7 40.5032 7C37.7512 7 36.3272 8.528 36.2312 11.584C36.2152 12.016 36.2072 12.68 36.2072 13.576C36.2072 14.472 36.2152 15.152 36.2312 15.616C36.3272 18.672 37.7512 20.2 40.5032 20.2C41.6872 20.2 42.6312 19.96 43.3352 19.48C44.0552 18.984 44.5432 18.136 44.7992 16.936C44.8472 16.728 44.9192 16.584 45.0152 16.504C45.1112 16.424 45.2392 16.384 45.3992 16.384H46.7192C46.8632 16.384 46.9832 16.432 47.0792 16.528C47.1912 16.608 47.2392 16.72 47.2232 16.864C47.1752 17.808 46.8952 18.688 46.3832 19.504C45.8712 20.32 45.1192 20.984 44.1272 21.496C43.1352 21.992 41.9272 22.24 40.5032 22.24ZM49.1475 22C49.0195 22 48.9075 21.952 48.8115 21.856C48.7155 21.76 48.6675 21.648 48.6675 21.52C48.6675 21.392 48.6755 21.304 48.6915 21.256L54.6435 5.728C54.7715 5.376 55.0275 5.2 55.4115 5.2H57.0435C57.4275 5.2 57.6835 5.376 57.8115 5.728L63.7395 21.256L63.7875 21.52C63.7875 21.648 63.7395 21.76 63.6435 21.856C63.5475 21.952 63.4355 22 63.3075 22H62.0835C61.9075 22 61.7715 21.96 61.6755 21.88C61.5795 21.784 61.5155 21.688 61.4835 21.592L60.1635 18.184H52.2915L50.9715 21.592C50.9395 21.688 50.8675 21.784 50.7555 21.88C50.6595 21.96 50.5315 22 50.3715 22H49.1475ZM59.4675 16.12L56.2275 7.6L52.9875 16.12H59.4675Z" fill="#606A70"/>
<path d="M69.976 22C69.816 22 69.672 21.944 69.544 21.832C69.432 21.704 69.376 21.56 69.376 21.4V8.968H65.104C64.944 8.968 64.8 8.912 64.672 8.8C64.56 8.672 64.504 8.528 64.504 8.368V5.8C64.504 5.624 64.56 5.48 64.672 5.368C64.8 5.256 64.944 5.2 65.104 5.2H78.016C78.192 5.2 78.336 5.256 78.448 5.368C78.56 5.48 78.616 5.624 78.616 5.8V8.368C78.616 8.544 78.56 8.688 78.448 8.8C78.336 8.912 78.192 8.968 78.016 8.968H73.744V21.4C73.744 21.56 73.688 21.704 73.576 21.832C73.464 21.944 73.32 22 73.144 22H69.976ZM78.1263 22C77.9983 22 77.8783 21.952 77.7663 21.856C77.6703 21.744 77.6223 21.624 77.6223 21.496C77.6223 21.4 77.6303 21.328 77.6463 21.28L83.2863 5.872C83.3343 5.68 83.4383 5.52 83.5983 5.392C83.7583 5.264 83.9663 5.2 84.2223 5.2H87.7743C88.0303 5.2 88.2383 5.264 88.3983 5.392C88.5583 5.52 88.6623 5.68 88.7103 5.872L94.3263 21.28L94.3743 21.496C94.3743 21.624 94.3183 21.744 94.2063 21.856C94.1103 21.952 93.9903 22 93.8463 22H90.8943C90.5103 22 90.2543 21.832 90.1263 21.496L89.1903 19.048H82.7823L81.8703 21.496C81.7423 21.832 81.4783 22 81.0783 22H78.1263ZM88.2303 15.592L85.9983 9.256L83.7663 15.592H88.2303ZM96.8659 22C96.7059 22 96.5619 21.944 96.4339 21.832C96.3219 21.704 96.2659 21.56 96.2659 21.4V5.8C96.2659 5.624 96.3219 5.48 96.4339 5.368C96.5619 5.256 96.7059 5.2 96.8659 5.2H100.034C100.21 5.2 100.354 5.256 100.466 5.368C100.578 5.48 100.634 5.624 100.634 5.8V18.376H107.906C108.082 18.376 108.226 18.44 108.338 18.568C108.45 18.68 108.506 18.824 108.506 19V21.4C108.506 21.56 108.45 21.704 108.338 21.832C108.226 21.944 108.082 22 107.906 22H96.8659ZM111.186 22C111.026 22 110.882 21.944 110.754 21.832C110.642 21.704 110.586 21.56 110.586 21.4V5.8C110.586 5.624 110.642 5.48 110.754 5.368C110.882 5.256 111.026 5.2 111.186 5.2H114.21C114.386 5.2 114.53 5.256 114.642 5.368C114.754 5.48 114.81 5.624 114.81 5.8V11.128L119.25 5.656C119.442 5.352 119.754 5.2 120.186 5.2H123.642C123.786 5.2 123.906 5.256 124.002 5.368C124.098 5.464 124.146 5.576 124.146 5.704C124.146 5.816 124.122 5.912 124.074 5.992L118.314 13.24L124.506 21.208C124.57 21.272 124.602 21.368 124.602 21.496C124.602 21.624 124.554 21.744 124.458 21.856C124.362 21.952 124.242 22 124.098 22H120.522C120.138 22 119.818 21.84 119.562 21.52L114.81 15.592V21.4C114.81 21.576 114.754 21.72 114.642 21.832C114.53 21.944 114.386 22 114.21 22H111.186ZM132.296 22.24C130.776 22.24 129.472 22.016 128.384 21.568C127.296 21.12 126.472 20.536 125.912 19.816C125.368 19.08 125.08 18.28 125.048 17.416C125.048 17.288 125.096 17.176 125.192 17.08C125.304 16.968 125.432 16.912 125.576 16.912H128.6C128.792 16.912 128.944 16.952 129.056 17.032C129.184 17.096 129.312 17.2 129.44 17.344C129.648 17.76 129.984 18.104 130.448 18.376C130.912 18.648 131.528 18.784 132.296 18.784C133.208 18.784 133.904 18.64 134.384 18.352C134.864 18.064 135.104 17.672 135.104 17.176C135.104 16.824 134.976 16.536 134.72 16.312C134.48 16.088 134.096 15.888 133.568 15.712C133.04 15.536 132.256 15.336 131.216 15.112C129.296 14.712 127.856 14.128 126.896 13.36C125.952 12.576 125.48 11.464 125.48 10.024C125.48 9.048 125.752 8.176 126.296 7.408C126.84 6.64 127.616 6.04 128.624 5.608C129.632 5.176 130.808 4.96 132.152 4.96C133.544 4.96 134.752 5.2 135.776 5.68C136.8 6.16 137.576 6.768 138.104 7.504C138.648 8.224 138.936 8.936 138.968 9.64C138.968 9.784 138.92 9.904 138.824 10C138.728 10.096 138.608 10.144 138.464 10.144H135.296C135.104 10.144 134.944 10.112 134.816 10.048C134.704 9.984 134.6 9.88 134.504 9.736C134.408 9.368 134.144 9.056 133.712 8.8C133.296 8.544 132.776 8.416 132.152 8.416C131.432 8.416 130.88 8.544 130.496 8.8C130.112 9.056 129.92 9.432 129.92 9.928C129.92 10.264 130.024 10.544 130.232 10.768C130.456 10.992 130.808 11.2 131.288 11.392C131.784 11.568 132.488 11.752 133.4 11.944C134.888 12.216 136.072 12.56 136.952 12.976C137.848 13.376 138.504 13.904 138.92 14.56C139.336 15.2 139.544 16.008 139.544 16.984C139.544 18.056 139.232 18.992 138.608 19.792C138 20.576 137.144 21.184 136.04 21.616C134.952 22.032 133.704 22.24 132.296 22.24Z" fill="#E54800"/>
</svg>
